<svg xmlns="http://www.w3.org/2000/svg" viewBox="0 0 24 24" aria-hidden="true"><path fill="#fff" d="M12 .9a11.1 11.1 0 0 0-3.5 21.64c.56.1.76-.24.76-.54v-2.1c-3.1.68-3.75-1.32-3.75-1.32-.5-1.3-1.24-1.65-1.24-1.65-1.02-.7.08-.68.08-.68 1.13.08 1.72 1.16 1.72 1.16 1 1.72 2.63 1.22 3.27.93.1-.73.39-1.22.71-1.5-2.47-.28-5.07-1.24-5.07-5.5 0-1.22.43-2.21 1.15-2.99-.12-.28-.5-1.42.11-2.95 0 0 .94-.3 3.06 1.14a10.6 10.6 0 0 1 5.58 0c2.12-1.44 3.05-1.14 3.05-1.14.62 1.53.23 2.67.12 2.95.71.78 1.15 1.77 1.15 2.99 0 4.27-2.61 5.21-5.09 5.49.4.34.76 1.03.76 2.08V22c0 .3.2.65.77.54A11.1 11.1 0 0 0 12 .9Z"/></svg>
